<?xml version="1.0" encoding="utf-8"?>
<!-- Generator: Adobe Illustrator 25.0.1, SVG Export Plug-In . SVG Version: 6.00 Build 0)  -->
<svg version="1.1" id="Layer_1" xmlns="http://www.w3.org/2000/svg" xmlns:xlink="http://www.w3.org/1999/xlink" x="0px" y="0px"
	 viewBox="0 0 771.7 393.85" style="enable-background:new 0 0 771.7 393.85;" xml:space="preserve">
<style type="text/css">
	.st0{fill:none;}
	.st1{fill:#FFFFFF;}
	.st2{fill:#333132;}
	.st3{fill:#F5333F;}
	.st4{fill:#E3E3E3;}
</style>
<rect x="-236.15" y="-343.08" class="st0" width="1920" height="1080"/>
<rect x="-236.15" y="-343.08" class="st0" width="1920" height="1080"/>
<rect x="-236.15" y="-343.08" class="st0" width="1920" height="1080"/>
<rect class="st1" width="771.7" height="393.85"/>
<rect x="-236.15" y="-343.08" class="st0" width="1920" height="1080"/>
<rect x="-236.15" y="-343.08" class="st0" width="1920" height="1080"/>
<g>
	<path class="st2" d="M128.49,274.86h22.83c5.65,0,10.54,0.96,14.68,2.86c4.14,1.91,7.3,4.61,9.48,8.11
		c2.18,3.5,3.27,7.61,3.27,12.34c0,6.62-1.47,12.42-4.4,17.43c-2.93,5-7.06,8.88-12.38,11.62s-11.46,4.11-18.39,4.11H117.2
		L128.49,274.86z M143.9,322.46c4.95,0,9.25-1.02,12.91-3.07c3.66-2.04,6.47-4.85,8.43-8.43c1.96-3.58,2.94-7.62,2.94-12.14
		c0-4.73-1.53-8.43-4.6-11.09c-3.07-2.66-7.53-3.99-13.39-3.99H137.2l-7.75,38.72H143.9z"/>
	<path class="st2" d="M190.77,288.26h10.08l-8.55,43.08h-10.08L190.77,288.26z M193.76,279.5c-1.13-1.1-1.69-2.43-1.69-3.99
		c0-1.83,0.63-3.36,1.9-4.6c1.26-1.24,2.92-1.86,4.96-1.86c1.77,0,3.23,0.52,4.36,1.57s1.69,2.33,1.69,3.83
		c0,1.99-0.63,3.6-1.9,4.84c-1.26,1.24-2.92,1.86-4.96,1.86C196.34,281.16,194.89,280.6,193.76,279.5z"/>
	<path class="st2" d="M209.13,330.57c-3.31-0.89-5.88-2-7.7-3.35l4.2-7.75c1.77,1.29,4.01,2.31,6.7,3.07
		c2.69,0.75,5.46,1.13,8.31,1.13c3.23,0,5.66-0.44,7.3-1.33c1.64-0.89,2.46-2.17,2.46-3.83c0-1.29-0.69-2.23-2.06-2.82
		c-1.37-0.59-3.54-1.21-6.49-1.86c-3.07-0.59-5.58-1.22-7.54-1.9c-1.96-0.67-3.66-1.77-5.08-3.31c-1.43-1.53-2.14-3.64-2.14-6.33
		c0-4.46,1.87-8,5.61-10.61c3.74-2.61,8.7-3.91,14.89-3.91c2.96,0,5.83,0.34,8.63,1.01c2.8,0.67,5.08,1.57,6.86,2.7l-3.71,7.75
		c-1.77-1.13-3.78-1.96-6.01-2.5c-2.23-0.54-4.48-0.81-6.74-0.81c-3.17,0-5.58,0.48-7.22,1.45c-1.64,0.97-2.46,2.23-2.46,3.79
		c0,1.4,0.71,2.41,2.14,3.03c1.42,0.62,3.64,1.25,6.66,1.9c3.01,0.59,5.49,1.22,7.42,1.9c1.94,0.67,3.6,1.76,5,3.27
		c1.4,1.51,2.1,3.55,2.1,6.13c0,4.63-1.88,8.2-5.65,10.73c-3.77,2.53-8.77,3.79-15.01,3.79
		C215.91,331.9,212.43,331.46,209.13,330.57z"/>
	<path class="st2" d="M296.46,288.26l-8.55,43.08h-9.6l0.89-4.44c-3.77,3.34-8.44,5-14.04,5c-3.55,0-6.76-0.75-9.64-2.26
		c-2.88-1.5-5.15-3.7-6.82-6.58c-1.67-2.88-2.5-6.25-2.5-10.12c0-4.79,1.06-9.1,3.19-12.95c2.12-3.84,5.03-6.84,8.71-9
		c3.68-2.15,7.81-3.23,12.38-3.23c6.88,0,11.78,2.29,14.68,6.86l1.21-6.37H296.46z M275.36,321.21c2.23-1.37,3.99-3.28,5.28-5.73
		c1.29-2.45,1.94-5.23,1.94-8.35c0-3.39-1-6.04-2.99-7.95c-1.99-1.91-4.79-2.86-8.39-2.86c-2.85,0-5.39,0.69-7.62,2.06
		c-2.23,1.37-3.99,3.28-5.28,5.73c-1.29,2.45-1.94,5.23-1.94,8.35c0,3.39,0.99,6.04,2.99,7.95c1.99,1.91,4.79,2.86,8.39,2.86
		C270.59,323.27,273.13,322.58,275.36,321.21z"/>
	<path class="st2" d="M304.73,330.57c-3.31-0.89-5.88-2-7.7-3.35l4.2-7.75c1.77,1.29,4.01,2.31,6.7,3.07
		c2.69,0.75,5.46,1.13,8.31,1.13c3.23,0,5.66-0.44,7.3-1.33c1.64-0.89,2.46-2.17,2.46-3.83c0-1.29-0.69-2.23-2.06-2.82
		c-1.37-0.59-3.54-1.21-6.49-1.86c-3.07-0.59-5.58-1.22-7.54-1.9c-1.96-0.67-3.66-1.77-5.08-3.31c-1.43-1.53-2.14-3.64-2.14-6.33
		c0-4.46,1.87-8,5.61-10.61c3.74-2.61,8.7-3.91,14.89-3.91c2.96,0,5.83,0.34,8.63,1.01c2.8,0.67,5.08,1.57,6.86,2.7l-3.71,7.75
		c-1.77-1.13-3.78-1.96-6.01-2.5c-2.23-0.54-4.48-0.81-6.74-0.81c-3.17,0-5.58,0.48-7.22,1.45c-1.64,0.97-2.46,2.23-2.46,3.79
		c0,1.4,0.71,2.41,2.14,3.03c1.42,0.62,3.64,1.25,6.66,1.9c3.01,0.59,5.49,1.22,7.42,1.9c1.94,0.67,3.6,1.76,5,3.27
		c1.4,1.51,2.1,3.55,2.1,6.13c0,4.63-1.88,8.2-5.65,10.73c-3.77,2.53-8.77,3.79-15.01,3.79
		C311.52,331.9,308.04,331.46,304.73,330.57z"/>
	<path class="st2" d="M355.6,316.9c-0.11,0.86-0.16,1.48-0.16,1.86c0,3.23,1.69,4.84,5.08,4.84c2.1,0,3.98-0.56,5.65-1.69l1.77,7.42
		c-2.74,1.72-6.21,2.58-10.41,2.58c-3.71,0-6.7-1.02-8.96-3.07c-2.26-2.04-3.39-4.87-3.39-8.47c0-1.18,0.11-2.31,0.32-3.39
		l4.11-20.33h-7.02l1.61-8.07h7.02l1.94-9.84h10.08l-2.02,9.84h11.62l-1.61,8.07h-11.62L355.6,316.9z"/>
	<path class="st2" d="M419.41,312.78H385.2c0.16,7.05,4.3,10.57,12.42,10.57c2.47,0,4.79-0.39,6.94-1.17
		c2.15-0.78,3.98-1.87,5.49-3.27l4.2,7.02c-2.21,1.99-4.85,3.48-7.95,4.48c-3.09,0.99-6.33,1.49-9.72,1.49
		c-4.3,0-8.06-0.78-11.25-2.34c-3.2-1.56-5.66-3.78-7.38-6.66c-1.72-2.88-2.58-6.2-2.58-9.96c0-4.79,1.06-9.1,3.19-12.95
		c2.12-3.84,5.08-6.84,8.87-9c3.79-2.15,8.05-3.23,12.79-3.23c6.02,0,10.84,1.68,14.44,5.04c3.6,3.36,5.41,7.97,5.41,13.84
		C420.06,308.75,419.84,310.79,419.41,312.78z M391.05,298.58c-2.39,1.83-4.05,4.33-4.96,7.5h24.69c0.05-3.23-0.93-5.74-2.94-7.54
		c-2.02-1.8-4.72-2.7-8.11-2.7C396.34,295.84,393.45,296.75,391.05,298.58z"/>
	<path class="st2" d="M448.17,289.14c2.72-0.91,5.96-1.37,9.72-1.37l-1.86,9.6c-0.92-0.16-1.75-0.24-2.5-0.24
		c-8.23,0-13.2,4.33-14.93,12.99l-4.28,21.22h-10.08l8.55-43.08h9.6l-1.13,5.57C443.16,291.62,445.45,290.06,448.17,289.14z"/>
	<path class="st2" d="M491.37,274.86h10.49l-9.52,47.6h29.53l-1.77,8.88h-40.02L491.37,274.86z"/>
	<path class="st2" d="M577.46,288.26l-8.55,43.08h-9.6l0.89-4.44c-3.77,3.34-8.44,5-14.04,5c-3.55,0-6.76-0.75-9.64-2.26
		c-2.88-1.5-5.15-3.7-6.82-6.58c-1.67-2.88-2.5-6.25-2.5-10.12c0-4.79,1.06-9.1,3.19-12.95c2.12-3.84,5.03-6.84,8.71-9
		c3.68-2.15,7.81-3.23,12.38-3.23c6.88,0,11.78,2.29,14.68,6.86l1.21-6.37H577.46z M556.36,321.21c2.23-1.37,3.99-3.28,5.28-5.73
		c1.29-2.45,1.94-5.23,1.94-8.35c0-3.39-1-6.04-2.99-7.95c-1.99-1.91-4.79-2.86-8.39-2.86c-2.85,0-5.39,0.69-7.62,2.06
		c-2.23,1.37-3.99,3.28-5.28,5.73c-1.29,2.45-1.94,5.23-1.94,8.35c0,3.39,0.99,6.04,2.99,7.95c1.99,1.91,4.79,2.86,8.39,2.86
		C551.58,323.27,554.13,322.58,556.36,321.21z"/>
	<path class="st2" d="M657.81,288.26l-24.04,43.08h-9.92l-5.81-29.69l-16.86,29.69h-9.76l-7.91-43.08h9.2l5.49,31.71l17.99-31.71
		h8.63l5.73,31.71l17.75-31.71H657.81z"/>
</g>
<rect x="-236.15" y="-343.08" class="st0" width="1920" height="1080"/>
<g>
	<path class="st2" d="M667.84,172.56c9.77,0,18.62-1.72,26.57-5.15c7.95-3.43,14.6-8.43,19.97-14.98l-16.75-15.46
		c-7.62,8.91-17.07,13.36-28.34,13.36c-6.98,0-13.21-1.53-18.68-4.59c-5.47-3.06-9.74-7.33-12.8-12.81
		c-3.06-5.47-4.59-11.7-4.59-18.68c0-6.98,1.53-13.2,4.59-18.68c3.06-5.48,7.33-9.74,12.8-12.8c5.48-3.06,11.7-4.59,18.68-4.59
		c11.27,0,20.72,4.41,28.34,13.21l16.75-15.46c-5.37-6.44-12-11.38-19.89-14.82c-7.89-3.43-16.72-5.15-26.49-5.15
		c-11.59,0-22.04,2.5-31.32,7.49c-9.29,4.99-16.59,11.92-21.9,20.77c-5.32,8.86-7.97,18.87-7.97,30.03
		c0,11.17,2.66,21.18,7.97,30.03c5.31,8.86,12.61,15.78,21.9,20.78C645.96,170.07,656.35,172.56,667.84,172.56 M563.65,98.81
		c0,6.22-2.04,11.05-6.12,14.49c-4.08,3.44-10.04,5.15-17.87,5.15H518.4V79.17h21.26c7.83,0,13.79,1.69,17.87,5.07
		C561.61,87.62,563.65,92.48,563.65,98.81 M592.15,170.63l-25.28-36.23c7.41-3.22,13.12-7.86,17.15-13.93
		c4.02-6.06,6.04-13.28,6.04-21.66c0-8.38-1.99-15.62-5.96-21.74c-3.97-6.12-9.63-10.84-16.99-14.17
		c-7.35-3.33-16.02-4.99-26.01-4.99h-48.79v112.73h26.09v-31.4h22.7h1.29l21.74,31.4H592.15z M469.77,78.84V57.91h-85.19v112.73
		h26.09v-41.06h52.17v-20.94h-52.17V78.84H469.77z M331.77,170.63h26.09V57.91h-26.09V170.63z"/>
	<polygon class="st3" points="97.59,131.95 57.32,131.95 57.32,97.43 97.59,97.43 97.59,97.41 97.59,57.14 132.11,57.14
		132.11,97.41 132.1,97.43 172.38,97.43 172.38,131.95 132.1,131.95 132.11,131.94 132.11,172.21 97.59,172.21 97.59,131.94 	"/>
	<path class="st3" d="M225.78,114.06c0-26.82,21.74-48.56,48.56-48.56c5.97,0,11.69,1.08,16.97,3.05
		C281.38,60.69,268.83,56,255.18,56c-32.18,0-58.27,26.09-58.27,58.28c0,32.18,26.09,58.27,58.27,58.27
		c14.11,0,27.04-5.01,37.12-13.35c-5.56,2.21-11.61,3.43-17.96,3.43C247.52,162.63,225.78,140.88,225.78,114.06"/>
</g>
<rect x="61.38" y="226.5" class="st4" width="648.93" height="4.62"/>
<rect x="-236.15" y="-343.08" class="st0" width="1920" height="1080"/>
<rect x="-236.15" y="-343.08" class="st0" width="1920" height="1080"/>
</svg>
