<?xml version="1.0" encoding="utf-8"?>
<!-- Generator: Adobe Illustrator 25.2.1, SVG Export Plug-In . SVG Version: 6.00 Build 0)  -->
<svg version="1.1" id="Layer_1" xmlns="http://www.w3.org/2000/svg" xmlns:xlink="http://www.w3.org/1999/xlink" x="0px" y="0px"
	 viewBox="0 0 500 500" style="enable-background:new 0 0 500 500;" xml:space="preserve">
<style type="text/css">
	.st0{fill:#F5333F;}
	.st1{fill:none;stroke:#011E41;stroke-width:16;stroke-miterlimit:10;}
	.st2{fill:none;stroke:#F5333F;stroke-width:16;stroke-miterlimit:10;}
	.st3{fill:none;stroke:#031F40;stroke-width:16;stroke-miterlimit:10;}
	.st4{fill:none;stroke:#011E41;stroke-width:15.3956;stroke-miterlimit:10;}
</style>
<path class="st1" d="M95.2,425.2L95.2,425.2c-14.5-14.5-14.5-38,0-52.5l0,0l0,0C109.7,387.2,109.7,410.7,95.2,425.2L95.2,425.2z"/>
<g>
	<path class="st1" d="M367.3,403.8l-23.7-23.7c-62.3-62.3-62.3-163.3,0-225.6l23.7-23.7l23.7,23.7c62.3,62.3,62.3,163.3,0,225.6
		L367.3,403.8z"/>
	<g>
		<line class="st4" x1="367.5" y1="195.4" x2="367.5" y2="452.7"/>
		<line class="st1" x1="410.8" y1="247.7" x2="367.5" y2="301.1"/>
		<line class="st1" x1="331.8" y1="221" x2="366.8" y2="260.7"/>
		<line class="st1" x1="331.8" y1="301.1" x2="366.8" y2="340.7"/>
	</g>
</g>
<path class="st2" d="M370.1,84.7c-33-26-74.7-41.5-120-41.5c-45.3,0-87,15.5-120,41.5"/>
<line class="st3" x1="55.3" y1="450" x2="444.7" y2="450"/>
<g>
	<g>
		<g>
			<path class="st1" d="M211.9,374.2l0.7-0.2c26.7-7.8,47.5-28.8,55-55.6l1.8-6.4c2.5-9.1-5.8-17.4-14.9-14.8l-7.1,2
				c-26.7,7.7-47.6,28.6-55.3,55.3l0,0c-0.5,1.8-0.7,3.6-0.6,5.3c0.2,4.6,2.5,8.7,5.9,11.5C201.3,374.4,206.5,375.8,211.9,374.2z"/>
			<path class="st1" d="M191,372.7l-0.7-0.2c-26.7-7.8-47.5-28.8-55-55.6l-1.8-6.4c-2.5-9.1,5.8-17.4,14.9-14.8l7.1,2
				c18.8,5.4,34.7,17.3,45.2,33.2"/>
			<path class="st1" d="M192.2,354.5c-3.5,13.2-5.4,27-5.4,41.3c0,8.4,0.6,16.6,1.9,24.6"/>
		</g>
	</g>
	<path class="st1" d="M169.9,444.7c0-10.8,8.8-19.5,19.5-19.5c10.8,0,19.5,8.8,19.5,19.5"/>
</g>
</svg>
