<?xml version="1.0" encoding="utf-8"?>
<!-- Generator: Adobe Illustrator 25.2.1, SVG Export Plug-In . SVG Version: 6.00 Build 0)  -->
<svg version="1.1" id="Layer_1" xmlns="http://www.w3.org/2000/svg" xmlns:xlink="http://www.w3.org/1999/xlink" x="0px" y="0px"
	 viewBox="0 0 500 500" style="enable-background:new 0 0 500 500;" xml:space="preserve">
<style type="text/css">
	.st0{fill:#F5333F;}
	.st1{fill:none;stroke:#011E41;stroke-width:16;stroke-miterlimit:10;}
	.st2{fill:none;stroke:#F5333F;stroke-width:16;stroke-miterlimit:10;}
	.st3{fill:none;stroke:#031F40;stroke-width:16;stroke-miterlimit:10;}
	.st4{fill:none;stroke:#011E41;stroke-width:15.3956;stroke-miterlimit:10;}
</style>
<g>
	<path class="st0" d="M391.3,356.6l30.8-54.7l-23.8-40.3c0.6-5.5,1-11.2,1-16.9c0-9-0.7-17.8-2.2-26.4l23.7-42.2l-32-54l-52,0.6
		c-8.9-6.4-18.5-11.8-28.7-16.1L282,61l-62.8-0.2l-26.4,45.4c-11.5,4.8-22.3,11-32.1,18.3l-51.9,0.5l-30.8,54.7l24.5,41.6
		c-1.1,7.3-1.7,14.8-1.7,22.4c0,7.2,0.5,14.2,1.4,21.1l-22.9,40.7l32,54l43.4-0.5c12.5,10.4,26.8,18.8,42.4,24.8l21.1,36.8l62.8,0.2
		l21.4-36.7c16.9-6.3,32.3-15.5,45.7-27.1L391.3,356.6z"/>
	<g>
		<g>
			<path class="st1" d="M225.8,405.3l17.1-30.5l-13.3-22.4c0.3-3.1,0.5-6.2,0.5-9.4c0-5-0.4-9.9-1.3-14.7l13.1-23.5l-17.9-30
				l-28.9,0.4c-5-3.5-10.3-6.5-16-8.9L164.5,241h-34.9l-14.6,25.3c-6.4,2.7-12.4,6.1-17.9,10.3L68.2,277l-17.1,30.5l13.7,23.1
				c-0.6,4.1-0.9,8.2-0.9,12.5c0,4,0.3,7.9,0.8,11.8l-12.7,22.7l17.9,30l24.1-0.4c7,5.8,15,10.4,23.6,13.7l11.8,20.5h34.9l11.8-20.5
				c9.4-3.5,17.9-8.7,25.4-15.2L225.8,405.3z"/>
			<circle class="st1" cx="147" cy="341.1" r="44.7"/>
		</g>
		<g>
			<path class="st1" d="M431.8,364l17.1-30.5l-13.3-22.4c0.3-3.1,0.5-6.2,0.5-9.4c0-5-0.4-9.9-1.3-14.7l13.1-23.5l-17.9-30
				l-28.9,0.4c-5-3.5-10.3-6.5-16-8.9l-14.6-25.3h-34.9l-14.6,25.3c-6.4,2.7-12.4,6.1-17.9,10.3l-28.9,0.4l-17.1,30.5l13.7,23.1
				c-0.6,4.1-0.9,8.2-0.9,12.5c0,4,0.3,7.9,0.8,11.8l-12.7,22.7l17.9,30l24.1-0.4c7,5.8,15,10.4,23.6,13.7l11.8,20.5h34.9l11.8-20.5
				c9.4-3.5,17.9-8.7,25.4-15.2L431.8,364z"/>
			<circle class="st1" cx="353" cy="299.9" r="44.7"/>
		</g>
		<g>
			<path class="st1" d="M296.1,204.8l17.1-30.5l-13.3-22.4c0.3-3.1,0.5-6.2,0.5-9.4c0-5-0.4-9.9-1.3-14.7l13.1-23.5l-17.9-30
				l-28.9,0.4c-5-3.5-10.3-6.5-16-8.9l-14.6-25.3h-34.9l-14.6,25.3c-6.4,2.7-12.4,6.1-17.9,10.3l-28.9,0.4L121.4,107l13.7,23.1
				c-0.6,4.1-0.9,8.2-0.9,12.5c0,4,0.3,7.9,0.8,11.8L122.4,177l17.9,30l24.1-0.4c7,5.8,15,10.4,23.6,13.7l11.8,20.5h34.9l11.8-20.5
				c9.4-3.5,17.9-8.7,25.4-15.2L296.1,204.8z"/>
			<circle class="st1" cx="217.3" cy="140.6" r="44.7"/>
		</g>
	</g>
</g>
</svg>
