<?xml version="1.0" encoding="utf-8"?>
<!-- Generator: Adobe Illustrator 25.2.1, SVG Export Plug-In . SVG Version: 6.00 Build 0)  -->
<svg version="1.1" id="Layer_1" xmlns="http://www.w3.org/2000/svg" xmlns:xlink="http://www.w3.org/1999/xlink" x="0px" y="0px"
	 viewBox="0 0 500 500" style="enable-background:new 0 0 500 500;" xml:space="preserve">
<style type="text/css">
	.st0{fill:#F5333F;}
	.st1{fill:none;stroke:#011E41;stroke-width:16;stroke-miterlimit:10;}
	.st2{fill:none;stroke:#F5333F;stroke-width:16;stroke-miterlimit:10;}
	.st3{fill:none;stroke:#031F40;stroke-width:16;stroke-miterlimit:10;}
	.st4{fill:none;stroke:#011E41;stroke-width:15.3956;stroke-miterlimit:10;}
</style>
<g>
	<circle class="st0" cx="143.3" cy="419.6" r="49.9"/>
	<g>
		<g>
			<line class="st1" x1="156.7" y1="273.4" x2="156.7" y2="356.8"/>
		</g>
	</g>
	<path class="st1" d="M79.1,356.8l36.7-76h1l-0.2,66.4c-38.8,0-70.3,31.5-70.3,70.3L46,457.5"/>
	<circle class="st1" cx="117.9" cy="419.3" r="42.2"/>
	<circle class="st1" cx="383.7" cy="325.9" r="23"/>
	<g>
		<polyline class="st1" points="352.6,470.4 352.6,375 334.1,325.9 		"/>
	</g>
	<g>
		<polyline class="st1" points="329.5,314.7 288.8,190.8 287.8,190.8 287.8,470.6 		"/>
	</g>
	<g>
		<polyline class="st1" points="429.4,416.8 415.5,374.5 415.2,374.5 415.2,470 		"/>
	</g>
	<path class="st1" d="M234.9,468.5V338.1c0-9.5-6.3-17.8-15.4-20.6c-21.1-6.6-36.5-26.3-36.5-49.5s15.3-43,36.5-49.5
		c9.1-2.8,15.4-11.1,15.4-20.6v-18.3"/>
	<circle class="st1" cx="261.1" cy="136.9" r="23.9"/>
	<g>
		<polyline class="st1" points="399.9,278.7 373.3,220.7 372.4,220.7 372.4,281.5 		"/>
	</g>
	<circle class="st1" cx="345.4" cy="166.8" r="23.9"/>
	<g>
		<g>
			<circle class="st1" cx="176.8" cy="166.8" r="23.9"/>
		</g>
	</g>
	<g>
		<g>
			<circle class="st1" cx="136.7" cy="234.3" r="23.9"/>
		</g>
	</g>
	<line class="st1" x1="328.5" y1="214.5" x2="328.5" y2="254.8"/>
	<path class="st2" d="M378.8,78.8c-33-25.9-74.6-41.4-119.8-41.4c-45.2,0-86.8,15.5-119.8,41.4"/>
</g>
</svg>
