<?xml version="1.0" encoding="utf-8"?>
<!-- Generator: Adobe Illustrator 25.2.1, SVG Export Plug-In . SVG Version: 6.00 Build 0)  -->
<svg version="1.1" id="Layer_1" xmlns="http://www.w3.org/2000/svg" xmlns:xlink="http://www.w3.org/1999/xlink" x="0px" y="0px"
	 viewBox="0 0 500 500" style="enable-background:new 0 0 500 500;" xml:space="preserve">
<style type="text/css">
	.st0{fill:#F5333F;}
	.st1{fill:none;stroke:#011E41;stroke-width:16;stroke-miterlimit:10;}
	.st2{fill:none;stroke:#F5333F;stroke-width:16;stroke-miterlimit:10;}
	.st3{fill:none;stroke:#031F40;stroke-width:16;stroke-miterlimit:10;}
	.st4{fill:none;stroke:#011E41;stroke-width:15.3956;stroke-miterlimit:10;}
</style>
<g>
	<g>
		<path class="st1" d="M232.5,420.8c-7.3,7-18.9,6.8-26-0.5c-7-7.3-6.8-18.9,0.5-26l53.7-54.2c7.3-7,18.9-6.8,26,0.5
			c7,7.3,6.8,18.9-0.5,26L232.5,420.8z"/>
		<path class="st1" d="M311.8,304.7l0.3,76.3c-0.2,10.1-8.6,18.2-18.7,18s-18.2-8.6-18-18.7"/>
		<path class="st1" d="M348.8,286.7l0.3,76.3c-0.2,10.1-8.6,18.2-18.7,18s-18.2-8.6-18-18.7"/>
		<path class="st1" d="M199.5,401.9c-7.3,7-18.9,6.8-26-0.5c-7-7.3-6.8-18.9,0.5-26l86.5-87c7.3-7,18.9-6.8,26,0.5
			c7,7.3,6.8,18.9-0.5,26L199.5,401.9z"/>
		<path class="st1" d="M166.4,383c-7.3,7-18.9,6.8-26-0.5c-7-7.3-6.8-18.9,0.5-26l80.8-81.3c7.3-7,18.9-6.8,26,0.5
			c7,7.3,6.8,18.9-0.5,26L166.4,383z"/>
		<path class="st1" d="M133.4,364.1c-7.3,7-18.9,6.8-26-0.5c-7-7.3-6.8-18.9,0.5-26l47.6-48c7.3-7,18.9-6.8,26,0.5
			c7,7.3,6.8,18.9-0.5,26L133.4,364.1z"/>
		<path class="st1" d="M349.1,344.4c-0.2,10.1,7.9,18.5,18,18.7s18.5-7.9,18.7-18l-0.3-76.3l-72.3-75.5c-11-11.5-29.4-11.3-40.1,0.4
			l-37.5,40.8c-12.8,13.9-34.4,14.7-48.2,1.8l52.5-88.3l0,0c27.4-22.2,66-24.5,95.8-5.6l71.4,45.1h34.7"/>
		<path class="st1" d="M58.2,186.5h59.6l34.5-25.2c18-13.1,41-17.3,62.4-11.2l0,0"/>
		<line class="st1" x1="58.2" y1="338.6" x2="82.2" y2="338.6"/>
		<line class="st1" x1="405.8" y1="338.6" x2="441.8" y2="338.6"/>
	</g>
	<path class="st2" d="M370,97.3c-33-26-74.7-41.5-120-41.5c-45.3,0-87,15.5-120,41.5"/>
</g>
</svg>
