<?xml version="1.0" encoding="utf-8"?>
<!-- Generator: Adobe Illustrator 25.2.1, SVG Export Plug-In . SVG Version: 6.00 Build 0)  -->
<svg version="1.1" id="Layer_1" xmlns="http://www.w3.org/2000/svg" xmlns:xlink="http://www.w3.org/1999/xlink" x="0px" y="0px"
	 viewBox="0 0 500 500" style="enable-background:new 0 0 500 500;" xml:space="preserve">
<style type="text/css">
	.st0{fill:#F5333F;}
	.st1{fill:none;stroke:#011E41;stroke-width:16;stroke-miterlimit:10;}
	.st2{fill:none;stroke:#F5333F;stroke-width:16;stroke-miterlimit:10;}
	.st3{fill:none;stroke:#031F40;stroke-width:16;stroke-miterlimit:10;}
	.st4{fill:none;stroke:#011E41;stroke-width:15.3956;stroke-miterlimit:10;}
</style>
<g>
	<g>
		<g>
			<circle class="st1" cx="250" cy="162.8" r="18.6"/>
			<g>
				<polyline class="st1" points="302.5,298.9 270.9,202.6 270.1,202.6 270.1,420.1 				"/>
				<polyline class="st1" points="197.5,298.9 229.1,202.6 229.9,202.6 229.9,420.1 				"/>
			</g>
		</g>
		<g>
			<g>
				<path class="st1" d="M396.7,415.1l-16.6-44.1c-1.8-4.8-1-10.2,2.2-14.3l47.3-60.4c2.9-3.6,4.2-8.3,3.7-12.9l-5.7-56.2
					l-30.6-74.8c-3-8.4-12.2-12.8-20.6-9.8s-12.8,12.2-9.8,20.6l24.3,68.5"/>
				<path class="st1" d="M377.4,314.7l28.3-83.3l0,0c-13.4-4.5-27.8,2.5-32.6,15.8l-11.2,30.7l-24.8,18.6
					c-24.1,18.1-33.2,50-22.3,78.1l17.6,45.5"/>
			</g>
			<g>
				<path class="st1" d="M103.3,415.1l16.6-44.1c1.8-4.8,1-10.2-2.2-14.3l-47.3-60.4c-2.9-3.6-4.2-8.3-3.7-12.9l5.7-56.2l30.6-74.8
					c3-8.4,12.2-12.8,20.6-9.8s12.8,12.2,9.8,20.6L109,231.5"/>
				<path class="st1" d="M122.6,314.7l-28.3-83.3l0,0c13.4-4.5,27.8,2.5,32.6,15.8l11.2,30.7l24.8,18.6c24.1,18.1,33.2,50,22.3,78.1
					l-17.6,45.5"/>
			</g>
		</g>
	</g>
	<path class="st2" d="M370,100.4c-33-26-74.7-41.5-120-41.5c-45.3,0-87,15.5-120,41.5"/>
</g>
</svg>
