<?xml version="1.0" encoding="utf-8"?>
<!-- Generator: Adobe Illustrator 25.2.1, SVG Export Plug-In . SVG Version: 6.00 Build 0)  -->
<svg version="1.1" id="Layer_1" xmlns="http://www.w3.org/2000/svg" xmlns:xlink="http://www.w3.org/1999/xlink" x="0px" y="0px"
	 viewBox="0 0 500 500" style="enable-background:new 0 0 500 500;" xml:space="preserve">
<style type="text/css">
	.st0{fill:#F5333F;}
	.st1{fill:none;stroke:#011E41;stroke-width:16;stroke-miterlimit:10;}
	.st2{fill:none;stroke:#F5333F;stroke-width:16;stroke-miterlimit:10;}
	.st3{fill:none;stroke:#031F40;stroke-width:16;stroke-miterlimit:10;}
	.st4{fill:none;stroke:#011E41;stroke-width:15.3956;stroke-miterlimit:10;}
</style>
<g>
	<path class="st1" d="M204.7,325c-14.6,27.9-43.8,47-77.5,47c-48.2,0-87.4-39.1-87.4-87.4s39.1-87.4,87.4-87.4
		c18.1,0,34.9,5.5,48.8,14.9"/>
	<g>
		<line class="st1" x1="127.1" y1="239.1" x2="127.1" y2="450"/>
		<line class="st1" x1="83.7" y1="291.4" x2="127.1" y2="344.8"/>
		<line class="st1" x1="162.7" y1="264.8" x2="127.8" y2="304.4"/>
	</g>
	<g>
		<line class="st1" x1="250.2" y1="172.1" x2="250.2" y2="450"/>
		<line class="st1" x1="293.6" y1="224.3" x2="250.2" y2="277.7"/>
		<line class="st1" x1="214.6" y1="197.7" x2="249.5" y2="237.4"/>
	</g>
	<g>
		<path class="st1" d="M418.1,277.8c3.6-7.3,5.6-15.6,5.6-24.3c0-30.5-24.7-55.2-55.2-55.2c-30.5,0-55.2,24.7-55.2,55.2
			c0,8.7,2,17,5.6,24.3c-23.6,2.6-42,22.6-42,46.9c0,26.1,21.1,47.2,47.2,47.2c20.4,0,37.8-13,44.4-31.1
			c6.6,18.2,23.9,31.1,44.4,31.1c26.1,0,47.2-21.1,47.2-47.2C460.2,300.3,441.8,280.3,418.1,277.8z"/>
		<g>
			<line class="st1" x1="371.2" y1="239.6" x2="371.2" y2="450"/>
			<line class="st1" x1="319.1" y1="277.8" x2="370.4" y2="312.6"/>
		</g>
	</g>
	<path class="st1" d="M282.3,338.9c-2,2.3-4.1,4.5-6.3,6.7l-25.7,25.7l-25.7-25.7c-62.5-62.5-62.5-163.8,0-226.2l25.7-25.7
		l25.7,25.7c29.2,29.2,44.7,66.8,46.6,104.9"/>
</g>
<path class="st2" d="M370.1,84.7c-33-26-74.7-41.5-120-41.5c-45.3,0-87,15.5-120,41.5"/>
<line class="st3" x1="55.3" y1="450" x2="444.7" y2="450"/>
</svg>
