<?xml version="1.0" encoding="utf-8"?>
<!-- Generator: Adobe Illustrator 25.2.1, SVG Export Plug-In . SVG Version: 6.00 Build 0)  -->
<svg version="1.1" id="Layer_1" xmlns="http://www.w3.org/2000/svg" xmlns:xlink="http://www.w3.org/1999/xlink" x="0px" y="0px"
	 viewBox="0 0 500 500" style="enable-background:new 0 0 500 500;" xml:space="preserve">
<style type="text/css">
	.st0{fill:#F5333F;}
	.st1{fill:none;stroke:#011E41;stroke-width:16;stroke-miterlimit:10;}
	.st2{fill:none;stroke:#F5333F;stroke-width:16;stroke-miterlimit:10;}
	.st3{fill:none;stroke:#031F40;stroke-width:16;stroke-miterlimit:10;}
	.st4{fill:none;stroke:#011E41;stroke-width:15.3956;stroke-miterlimit:10;}
</style>
<g>
	<g>
		<g>
			<path class="st1" d="M270.9,253.2l1.2-0.4c49.5-14.5,88-53.4,102-103l3.3-11.9c4.7-16.8-10.8-32.2-27.6-27.4l-13.1,3.8
				c-49.6,14.2-88.3,52.9-102.5,102.5l0,0c-1,3.3-1.3,6.6-1.1,9.7c0.4,8.5,4.6,16.2,10.9,21.3C251.1,253.5,260.9,256.1,270.9,253.2z
				"/>
			<path class="st1" d="M236.1,250.4l-1.2-0.4c-49.5-14.5-88-53.4-102-103l-3.3-11.9c-4.7-16.8,10.8-32.2,27.6-27.4l13.1,3.8
				c34.8,10,64.3,32.1,83.7,61.6"/>
			<path class="st1" d="M234.3,216.7c-6.5,24.4-10,50-10,76.5c0,15.5,1.2,30.7,3.5,45.5"/>
			<path class="st1" d="M252.7,249.5c-3.5,15.9-5.4,32.4-5.4,49.4c0,13.7,1.2,27.1,3.6,40.1"/>
		</g>
		<circle class="st1" cx="160.1" cy="303.9" r="24"/>
		<circle class="st1" cx="241.1" cy="394.4" r="12.9"/>
		<circle class="st1" cx="323" cy="417.3" r="12.9"/>
		<circle class="st1" cx="328" cy="333.5" r="12.9"/>
		<circle class="st1" cx="100.1" cy="346.4" r="12.9"/>
		<path class="st1" d="M371.8,120.4c-30.8,26.8-108.7,70.1-127.7,127.4"/>
		<path class="st1" d="M136.1,120.4c22.1,19.2,68.3,46.9,99.7,82.1"/>
		<line class="st1" x1="185.9" y1="117.5" x2="191.9" y2="160.8"/>
		<line class="st1" x1="224" y1="141.2" x2="229" y2="193.2"/>
		<line class="st1" x1="137.6" y1="162.6" x2="194.3" y2="163.3"/>
		<line class="st1" x1="159.2" y1="198.6" x2="233.5" y2="198.6"/>
		<line class="st1" x1="312.2" y1="123.3" x2="306.2" y2="172.2"/>
		<line class="st1" x1="265.2" y1="159.8" x2="266" y2="209.6"/>
		<line class="st1" x1="362.9" y1="172.2" x2="306.2" y2="172.2"/>
		<line class="st1" x1="338.4" y1="210.1" x2="264.1" y2="209.1"/>
		<path class="st1" d="M374.4,387.4c-4,0-7.8,0.8-11.3,2.1c-8.9-12.6-23.7-20.8-40.3-20.8c-7.4,0-14.5,1.7-20.8,4.6
			c-11.1-20.6-32.8-34.6-57.9-34.6s-46.8,14-57.9,34.6c-6.3-2.9-13.4-4.6-20.8-4.6c-16.6,0-31.3,8.2-40.3,20.8
			c-3.5-1.4-7.3-2.1-11.3-2.1c-16.9,0-30.7,13.7-30.7,30.7c0,16.9,13.7,30.7,30.7,30.7c4,0,7.8-0.8,11.3-2.1
			c8.9,12.6,23.7,20.8,40.3,20.8c13.6,0,25.9-5.5,34.8-14.3c11.6,10.5,27,16.8,43.9,16.8s32.2-6.4,43.9-16.8
			c8.9,8.9,21.2,14.3,34.8,14.3c16.6,0,31.3-8.2,40.3-20.8c3.5,1.4,7.3,2.1,11.3,2.1c16.9,0,30.7-13.7,30.7-30.7
			C405.1,401.2,391.4,387.4,374.4,387.4z"/>
	</g>
</g>
<path class="st2" d="M370.1,84.7c-33-26-74.7-41.5-120-41.5c-45.3,0-87,15.5-120,41.5"/>
</svg>
