<?xml version="1.0" encoding="utf-8"?>
<!-- Generator: Adobe Illustrator 25.2.1, SVG Export Plug-In . SVG Version: 6.00 Build 0)  -->
<svg version="1.1" id="Layer_1" xmlns="http://www.w3.org/2000/svg" xmlns:xlink="http://www.w3.org/1999/xlink" x="0px" y="0px"
	 viewBox="0 0 500 500" style="enable-background:new 0 0 500 500;" xml:space="preserve">
<style type="text/css">
	.st0{fill:#F5333F;}
	.st1{fill:none;stroke:#011E41;stroke-width:16;stroke-miterlimit:10;}
	.st2{fill:none;stroke:#F5333F;stroke-width:16;stroke-miterlimit:10;}
	.st3{fill:none;stroke:#031F40;stroke-width:16;stroke-miterlimit:10;}
	.st4{fill:none;stroke:#011E41;stroke-width:15.3956;stroke-miterlimit:10;}
</style>
<path class="st2" d="M370.1,84.7c-33-26-74.7-41.5-120-41.5c-45.3,0-87,15.5-120,41.5"/>
<g>
	<path class="st1" d="M243.8,262.1c6.6-9.5,16.1-19.9,28.7-31.1c9.6-8.6,16.8-16,21.5-22.3c4.7-6.3,7-13.5,7-21.5
		c0-11.2-4.6-20.4-13.7-27.3c-9.1-7-21.3-10.4-36.6-10.4c-28.9,0-50.8,10.3-65.5,30.9l-39-25.3c11.5-15.8,26.4-27.9,44.6-36.4
		c18.2-8.4,39.6-12.7,64.3-12.7c30,0,53.9,6.5,71.7,19.5c17.8,13,26.7,30.9,26.7,53.6c0,11-1.8,20.6-5.4,28.9
		c-3.6,8.3-8,15.3-13.1,21.1c-5.1,5.8-11.8,12.4-20.1,19.9c-10.2,9.1-17.7,17.1-22.7,24.1c-5,7-7.4,15.3-7.4,24.9h-51
		C233.9,283.5,237.2,271.6,243.8,262.1z M236.5,385c-6-6-9-13.5-9-22.3c0-8.8,3-16.2,9-22.1c6-5.9,13.7-8.8,23.1-8.8
		c9.1,0,16.7,3,22.7,8.8c6,5.9,9,13.3,9,22.1c0,8.8-3,16.3-9,22.3c-6,6-13.6,9-22.7,9C250.3,394,242.6,391,236.5,385z"/>
</g>
</svg>
