<svg version="1.2" xmlns="http://www.w3.org/2000/svg" xmlns:xlink="http://www.w3.org/1999/xlink" overflow="visible" preserveAspectRatio="none" viewBox="0 0 24 24" width="28" height="28"><g><defs> </defs> <rect display="none" fill="#FFA400" width="24" height="24" style="fill: rgb(0, 0, 0);" vector-effect="non-scaling-stroke"/> <rect id="_x3C_Slice_x3E__109_" display="none" fill="none" width="24" height="24" style="fill: rgb(0, 0, 0);" vector-effect="non-scaling-stroke"/> <path fill-rule="evenodd" clip-rule="evenodd" d="M12,11c6.627,0,12-2.238,12-5s-5.373-5-12-5S0,3.238,0,6S5.373,11,12,11z M12,19 c-4.578,0-8.629-1.104-11.184-2.802C0.296,16.758,0,17.364,0,18c0,2.762,5.373,5,12,5s12-2.238,12-5 c0-0.636-0.296-1.242-0.816-1.802C20.629,17.896,16.578,19,12,19z M12,13c-4.578,0-8.629-1.104-11.184-2.802 C0.296,10.758,0,11.364,0,12c0,2.762,5.373,5,12,5s12-2.238,12-5c0-0.636-0.296-1.242-0.816-1.802C20.629,11.896,16.578,13,12,13z" style="fill: rgb(0, 0, 0);" vector-effect="non-scaling-stroke"/> </g></svg>