<svg version="1.2" xmlns="http://www.w3.org/2000/svg" xmlns:xlink="http://www.w3.org/1999/xlink" overflow="visible" preserveAspectRatio="none" viewBox="0 0 24 24" width="37" height="40"><g><path xmlns:default="http://www.w3.org/2000/svg" id="hashtag" d="M10.34,13.34L11,10.68h2.64L13,13.34H10.34z M21,8.1c0.02-0.1,0-0.21-0.06-0.29  c-0.06-0.08-0.16-0.12-0.26-0.12h-3.26l0.81-3.25c0.02-0.1,0-0.21-0.06-0.29c-0.06-0.09-0.16-0.14-0.26-0.14h-2.33  c-0.16-0.01-0.3,0.1-0.33,0.25l-0.84,3.42h-2.65l0.81-3.25c0.02-0.1,0-0.21-0.06-0.29c-0.06-0.08-0.16-0.13-0.26-0.13H9.92  C9.76,4,9.62,4.1,9.59,4.26L8.74,7.68h-3.4C5.18,7.65,5.03,7.75,5,7.91c0,0.01,0,0.01,0,0.02l-0.57,2.33c-0.03,0.1,0,0.21,0.06,0.29  c0.06,0.08,0.16,0.12,0.26,0.12H8l-0.67,2.67H3.92c-0.15-0.01-0.29,0.1-0.32,0.25L3,15.92c-0.02,0.1,0,0.21,0.06,0.29  c0.06,0.08,0.16,0.12,0.26,0.12h3.26l-0.82,3.26c-0.02,0.1,0,0.21,0.06,0.29C5.88,19.95,5.98,20,6.08,20h2.35  c0.15,0.01,0.29-0.1,0.32-0.25l0.84-3.41h2.64l-0.81,3.25c-0.02,0.1,0,0.21,0.06,0.29c0.07,0.08,0.17,0.12,0.27,0.12h2.33  c0.15,0.01,0.29-0.1,0.32-0.25l0.84-3.41h3.4c0.16,0.04,0.31-0.05,0.35-0.21C19,16.11,19,16.1,19,16.09l0.58-2.33  c0.03-0.1,0-0.21-0.06-0.29c-0.06-0.08-0.16-0.12-0.26-0.12H16l0.67-2.67h3.4c0.15,0.01,0.29-0.1,0.32-0.25L21,8.1L21,8.1z" style="fill: rgb(38, 201, 222);" vector-effect="non-scaling-stroke"/></g></svg>