<svg version="1.2" xmlns="http://www.w3.org/2000/svg" xmlns:xlink="http://www.w3.org/1999/xlink" overflow="visible" preserveAspectRatio="none" viewBox="0 0 24 24" width="38" height="38"><g><path xmlns:default="http://www.w3.org/2000/svg" id="circle-o" d="M14.84,7.1c0.85,0.49,1.57,1.21,2.06,2.06c1.01,1.76,1.01,3.92,0,5.68c-0.49,0.85-1.21,1.57-2.06,2.06  c-1.76,1.01-3.92,1.01-5.68,0c-0.85-0.49-1.57-1.21-2.06-2.06c-1.01-1.76-1.01-3.92,0-5.68C7.59,8.31,8.31,7.59,9.16,7.1  C10.92,6.09,13.08,6.09,14.84,7.1z M18.92,8c-0.7-1.21-1.71-2.22-2.92-2.92C14.79,4.37,13.41,3.99,12,4c-1.41-0.01-2.79,0.37-4,1.08  C6.79,5.78,5.78,6.79,5.08,8C4.37,9.21,3.99,10.59,4,12c-0.01,1.41,0.36,2.79,1.07,4c0.7,1.21,1.71,2.22,2.93,2.92  c1.21,0.71,2.59,1.09,4,1.08c1.41,0.01,2.79-0.36,4-1.07c1.21-0.7,2.22-1.71,2.92-2.93c0.71-1.21,1.09-2.59,1.08-4  C20.01,10.59,19.63,9.21,18.92,8z" style="fill: rgb(38, 201, 222);" vector-effect="non-scaling-stroke"/></g></svg>