<svg version="1.2" xmlns="http://www.w3.org/2000/svg" xmlns:xlink="http://www.w3.org/1999/xlink" overflow="visible" preserveAspectRatio="none" viewBox="0 0 24 24" width="37" height="40"><g><path xmlns:default="http://www.w3.org/2000/svg" id="hourglass-start" d="M19.66,4c0.18,0.01,0.33-0.12,0.34-0.3c0-0.01,0-0.02,0-0.03V3c0.01-0.18-0.13-0.32-0.31-0.33  c-0.01,0-0.01,0-0.02,0H4.34C4.16,2.66,4.01,2.79,4,2.97C4,2.98,4,2.99,4,3v0.67C3.99,3.85,4.13,3.99,4.31,4c0.01,0,0.02,0,0.03,0h1  C5.31,5.67,5.69,7.32,6.45,8.8c0.64,1.28,1.59,2.38,2.77,3.2c-1.18,0.81-2.13,1.91-2.77,3.19C5.69,16.68,5.31,18.33,5.34,20h-1  c-0.18-0.01-0.32,0.13-0.33,0.31c0,0.01,0,0.01,0,0.02V21C4,21.18,4.14,21.32,4.32,21.33c0.01,0,0.01,0,0.02,0h15.32  c0.18,0.01,0.33-0.12,0.34-0.3c0-0.01,0-0.02,0-0.03v-0.67c0.01-0.18-0.13-0.32-0.31-0.33c-0.01,0-0.02,0-0.03,0h-1  c0.03-1.67-0.35-3.32-1.11-4.8c-0.64-1.28-1.59-2.38-2.77-3.2c1.18-0.81,2.13-1.91,2.77-3.19c0.76-1.49,1.14-3.14,1.11-4.81H19.66z   M17.24,5.34H6.76C6.7,4.9,6.67,4.45,6.67,4h10.66C17.33,4.45,17.3,4.9,17.24,5.34z M17.33,20H6.67c-0.01-0.88,0.1-1.75,0.33-2.6  c0.22-0.77,0.56-1.5,1-2.17c0.37-0.58,0.81-1.11,1.32-1.58c0.44-0.42,0.96-0.76,1.52-1h2.36c0.56,0.24,1.08,0.58,1.52,1  c0.49,0.47,0.92,1,1.28,1.58c0.44,0.67,0.78,1.4,1,2.17c0.24,0.85,0.35,1.72,0.35,2.6l0,0H17.33z" style="fill: rgb(38, 201, 222);" vector-effect="non-scaling-stroke"/></g></svg>