<svg version="1" xmlns="http://www.w3.org/2000/svg" width="933.333" height="933.333" viewBox="0 0 700.000000 700.000000"><path d="M152.7 60.7c-.2.5-.3 25.2-.3 55.1.1 47.4-.1 54.3-1.4 54.7-.8.2-25.5.4-54.8.3-29.3 0-53.6.2-53.9.5-.4.4-.7 75.8-.4 91.2l.1 3 54.3-.1c29.8 0 54.7.1 55.2.3.7.2 1 19.4 1 54.9-.1 30 .3 54.8.7 55 .9.6 92.9.6 93.5 0 .2-.2.5-25.1.6-55.2l.2-54.9h110V170.8H247.1v-53.1c0-29.3-.1-54.2-.1-55.5V60h-46.9c-25.9 0-47.2.3-47.4.7zM546.5 82c-13.8 2.1-22 4.1-32.4 7.9-37.4 13.6-68.6 43.3-84.3 80.1-4 9.2-8.6 24.1-9.5 30.5-.3 2.2-.9 6-1.3 8.4-.8 4.7-.6 34.6.3 39.6 4.7 25.1 12.1 43.7 25 62.3 6.7 9.8 30.7 34.2 33.6 34.2.4 0 1.4.6 2 1.4 1.3 1.5 14 9.1 21.6 12.9 11.5 5.7 33.1 11.8 47 13.3 10.9 1.2 35.9.6 40.7-1.1.7-.2 2.9-.6 4.8-.9 8.7-1.3 23.6-6.5 37-12.9 5.2-2.4 26.1-15.9 25.6-16.5-.2-.2-4.2.8-8.7 2.1-13.7 4.1-21.4 5.1-36.4 5-38.4-.4-74.3-18.8-97.3-49.8-9.9-13.2-19.6-36.1-21.6-50.5-.3-2.5-.8-5.6-1.1-7-.8-3.6-.9-25-.1-28.5.3-1.7.8-4.6 1.1-6.5 6.1-38.3 33-73.3 69-89.7 8.8-4 21.1-8.1 27-9 1.7-.2 4.7-.8 6.7-1.3 9.1-1.9 36.4-.6 47.3 2.4.6.1 3 .8 5.4 1.5 2.3.7 4.5 1 4.7.8.8-.8-14-10.1-23.5-14.8-10.1-5-24.9-10.1-34.1-11.8-3-.6-6.8-1.3-8.5-1.7-4.7-.9-34.5-1.3-40-.4zM583.7 459.6c-.1.1-3.3.5-7.2.8-6.9.7-16.1 2.7-22 4.7-4.5 1.7-19.7 9-21.2 10.3-.7.6-3.6 2.9-6.5 5-11 8.2-23.2 25.4-27.9 39.3-5.1 15.4-5.9 36.4-2 52.8 7 29.2 29.1 52.5 59.2 62.4 11.8 3.9 20.1 5 35.4 4.6 9.7-.2 23.4-2.1 29-3.9.6-.2 1.2-.4 1.5-.4.3 0 4-1.6 8.2-3.5 10.2-4.7 17.1-9.3 24.7-16.8l6.2-6-2.3-2.1c-2.5-2.1-20.4-18.5-22.4-20.5-.9-1-2.3-.2-6.5 3.8-10.5 9.7-22.7 14.8-36.7 15.3-35.1 1.1-60-24.5-57.8-59.4.7-10.7 2.7-17.7 7.6-26.1 7.1-12 19.6-21 33.8-24.3 8-1.9 24.1-1.5 30.7.8 8.3 2.8 15.4 6.8 21.2 12.1 3.1 2.7 5.9 5 6.3 5 .8 0 4.8-3.5 18.7-16.5l7.3-6.7-6.3-6c-16.7-16.2-36.7-23.6-66-24.6-2.7-.1-4.9-.1-5-.1zM68.4 463.2c-.3.5-.6 123.1-.4 168v5.8h19.9c15 0 20-.3 20.3-1.3.7-2.3.2-171.6-.5-172.4-1-.9-38.7-1-39.3-.1zM149.9 464c-.1 2.1-.1 170.2 0 171.7.1 1 4.8 1.3 20.1 1.3h20l.1-3.3c0-1.7.1-15.9.1-31.5 0-15.5.3-28.3.7-28.3.3-.1 18.2-.3 39.6-.4 21.5-.2 39.3-.3 39.8-.4.4 0 .7-7.3.7-16.1v-16h-80.8v-46H281.9l-.1-16c-.1-10.8-.5-16-1.2-16.1-.6-.1-30.2-.2-65.8-.3-57-.1-64.8.1-64.9 1.4zM318 462.8c-1.3.2-1.5 11.7-1.3 86.5.1 47.4.2 86.5.2 86.9.1.5 9.1.8 20.1.8h20v-48.6l17.8.2c9.7 0 18.2.2 18.9.3.6 0 7.8 9.8 16 21.7 8.1 11.9 15.7 22.7 16.8 24.1l2 2.4 21.3-.3 21.4-.3-7-10c-3.9-5.5-8.5-12-10.2-14.5-7.2-10.4-13-18.6-13.7-19.5-2.9-3.7-7.3-10.5-7.3-11.2 0-.4 2.6-2.1 5.8-3.8 7-3.6 18.7-15.1 22.4-22 4.7-8.9 6.7-18.6 6.3-31-.4-15.8-2.2-22.2-9-32.5-9.5-14.3-25.7-24.2-45-27.5-2.2-.4-5.1-.9-6.5-1.2-2.6-.5-86.4-1-89-.5zm85.5 34.1c7.5 1.8 11.6 4 16.1 8.7 5 5.1 7.4 11.6 7.4 19.8 0 7.9-1.3 12.4-5.3 18.2-4.5 6.5-12.3 10.6-22.7 12.1-2.9.4-36.9.7-40.7.4-1.9-.1-1.9-59.7-.1-60.3 2.7-.9 40.6 0 45.3 1.1z"/></svg>